<svg xmlns="http://www.w3.org/2000/svg" height="40" viewBox="0 -960 960 960" width="40"><path d="M282.975-140.001q-25.608 0-44.086-18.478-18.477-18.477-18.477-44.086v-532.05h-15.283q-10.679 0-17.903-7.263-7.225-7.263-7.225-18 0-10.736 7.225-17.864 7.224-7.128 17.903-7.128h148.922q0-12.795 8.946-21.654 8.945-8.859 21.567-8.859h190.872q12.622 0 21.567 8.946 8.946 8.945 8.946 21.567h148.922q10.679 0 17.903 7.263 7.225 7.263 7.225 17.999 0 10.737-7.225 17.865-7.224 7.128-17.903 7.128h-15.283v532.05q0 25.609-18.477 44.086-18.478 18.478-44.086 18.478h-394.05Zm96.565-133.23h50.255v-379.077H379.54v379.077Zm150.665 0h50.255v-379.077h-50.255v379.077Z" fill="#55cdcb"/></svg>