<svg id="Group_82" data-name="Group 82" xmlns="http://www.w3.org/2000/svg" xmlns:xlink="http://www.w3.org/1999/xlink" width="40" height="40" viewBox="0 0 40 40">
  <defs>
    <clipPath id="clip-path">
      <rect id="Rectangle_78" width="25" height="25" rx="7" fill="#a0a0a0" stroke="#a0a0a0" stroke-width="1"/>
    </clipPath>
  </defs>
  <g id="Rectangle_79"  fill="#fff" stroke="#f3f5f3" stroke-width="1">
    <rect width="40" height="40" rx="7" stroke="none"/>
    <rect x="0.5" y="0.5" width="39" height="39" rx="6.5" fill="none"/>
  </g>
  <g id="Mask_Group_5"  transform="translate(8 8)" clip-path="url(#clip-path)">
    <path id="calendar_add_on_FILL0_wght300_GRAD0_opsz24" d="M22.269-6.778h-2.9a.937.937,0,0,1-.69-.278.938.938,0,0,1-.278-.69.936.936,0,0,1,.278-.69.937.937,0,0,1,.69-.278h2.9v-2.9a.937.937,0,0,1,.278-.69.937.937,0,0,1,.69-.278.936.936,0,0,1,.69.278.937.937,0,0,1,.278.69v2.9h2.9a.937.937,0,0,1,.69.278.938.938,0,0,1,.278.69.936.936,0,0,1-.278.69.937.937,0,0,1-.69.278h-2.9v2.9a.937.937,0,0,1-.278.69.937.937,0,0,1-.69.278.936.936,0,0,1-.69-.278.937.937,0,0,1-.278-.69v-2.9ZM6.852-5.809A2.253,2.253,0,0,1,5.2-6.487a2.253,2.253,0,0,1-.678-1.656v-14.7A2.253,2.253,0,0,1,5.2-24.5a2.253,2.253,0,0,1,1.656-.678H8.64v-1.738a.96.96,0,0,1,.286-.708.963.963,0,0,1,.709-.285.958.958,0,0,1,.707.285.963.963,0,0,1,.284.708v1.738h7.2v-1.763a.937.937,0,0,1,.278-.69.937.937,0,0,1,.69-.278.936.936,0,0,1,.69.278.937.937,0,0,1,.278.69v1.763h1.788a2.253,2.253,0,0,1,1.656.678,2.253,2.253,0,0,1,.678,1.656v6.579a.937.937,0,0,1-.278.69.938.938,0,0,1-.69.278.936.936,0,0,1-.69-.278.937.937,0,0,1-.278-.69v-1.415H6.455v9.533a.38.38,0,0,0,.124.273.38.38,0,0,0,.273.124H14.71a.937.937,0,0,1,.69.278.937.937,0,0,1,.278.69.936.936,0,0,1-.278.69.937.937,0,0,1-.69.278H6.852Zm-.4-13.8H21.946V-22.84a.38.38,0,0,0-.124-.273.38.38,0,0,0-.273-.124H6.852a.38.38,0,0,0-.273.124.38.38,0,0,0-.124.273v3.227Zm0,0v0Z" transform="translate(-3.798 27.905)" fill="#141414"/>
  </g>
</svg>
