<svg xmlns="http://www.w3.org/2000/svg" xmlns:xlink="http://www.w3.org/1999/xlink" width="27.13" height="27.13" viewBox="0 0 27.13 27.13">
  <defs>
    <clipPath id="clip-path">
      <rect id="Rectangle_68" width="14" height="13" transform="translate(143 133)" fill="#fff" stroke="#707070" stroke-width="1"/>
    </clipPath>
  </defs>
  <circle id="Ellipse_3" cx="13.565" cy="13.565" r="13.565" fill="#0dbab5"/>
  <g id="Mask_Group_3"  transform="translate(-136.102 -126)" clip-path="url(#clip-path)">
    <path id="calendar_today_24dp_E8EAED_FILL0_wght400_GRAD0_opsz24" d="M3.25-1.3a1.252,1.252,0,0,1-.918-.382A1.252,1.252,0,0,1,1.95-2.6v-9.1a1.252,1.252,0,0,1,.382-.918A1.252,1.252,0,0,1,3.25-13H3.9v-.65a.629.629,0,0,1,.187-.463A.629.629,0,0,1,4.55-14.3a.629.629,0,0,1,.463.187.629.629,0,0,1,.187.463V-13h5.2v-.65a.629.629,0,0,1,.187-.463.629.629,0,0,1,.463-.187.629.629,0,0,1,.463.187.629.629,0,0,1,.187.463V-13h.65a1.252,1.252,0,0,1,.918.382,1.252,1.252,0,0,1,.382.918v9.1a1.252,1.252,0,0,1-.382.918,1.252,1.252,0,0,1-.918.382Zm0-1.3h9.1V-9.1H3.25Zm0-7.8h9.1v-1.3H3.25Zm0,0v0Z" transform="translate(142.2 147.3)" fill="#fff"/>
  </g>
</svg>
