<svg xmlns="http://www.w3.org/2000/svg" width="15" height="15" viewBox="0 0 15 15">
  <path id="schedule_FILL0_wght200_GRAD0_opsz24" d="M127.917-832.673v-3.577a.4.4,0,0,0-.12-.3.4.4,0,0,0-.3-.12.4.4,0,0,0-.3.12.4.4,0,0,0-.119.3v3.649a.677.677,0,0,0,.046.247.668.668,0,0,0,.155.229l2.958,2.958a.419.419,0,0,0,.287.125.389.389,0,0,0,.3-.125.409.409,0,0,0,.133-.295.409.409,0,0,0-.133-.295ZM127.5-825a7.309,7.309,0,0,1-2.925-.59,7.579,7.579,0,0,1-2.383-1.6,7.571,7.571,0,0,1-1.6-2.38A7.294,7.294,0,0,1,120-832.5a7.31,7.31,0,0,1,.59-2.925,7.578,7.578,0,0,1,1.6-2.383,7.571,7.571,0,0,1,2.38-1.6A7.294,7.294,0,0,1,127.5-840a7.309,7.309,0,0,1,2.925.59,7.579,7.579,0,0,1,2.383,1.6,7.571,7.571,0,0,1,1.6,2.38A7.3,7.3,0,0,1,135-832.5a7.31,7.31,0,0,1-.59,2.925,7.578,7.578,0,0,1-1.6,2.383,7.571,7.571,0,0,1-2.38,1.6A7.294,7.294,0,0,1,127.5-825ZM127.5-832.5Zm0,6.667a6.427,6.427,0,0,0,4.719-1.948,6.427,6.427,0,0,0,1.948-4.719,6.427,6.427,0,0,0-1.948-4.719,6.427,6.427,0,0,0-4.719-1.948,6.427,6.427,0,0,0-4.719,1.948,6.427,6.427,0,0,0-1.948,4.719,6.427,6.427,0,0,0,1.948,4.719A6.427,6.427,0,0,0,127.5-825.833Z" transform="translate(-120 840)" fill="#343434"/>
</svg>
