<svg xmlns="http://www.w3.org/2000/svg" width="38.992" height="34.02" viewBox="0 0 34.992 30.02">
  <path id="Icon_ionic-logo-vimeo" d="M37.258,8.906a4.452,4.452,0,0,0-3.172-3.617A9.062,9.062,0,0,0,26.734,6.6a12.422,12.422,0,0,0-4.2,6.547,5.9,5.9,0,0,1,3.047-.539,1.991,1.991,0,0,1,1.945,1.977,5.441,5.441,0,0,1-.281,2.164,22.881,22.881,0,0,1-3.719,6.313,5.625,5.625,0,0,1-.781.773c-.8.648-1.469.477-1.984-.406a10.943,10.943,0,0,1-.953-2.273,72.887,72.887,0,0,1-1.859-9.5,11.618,11.618,0,0,0-1.406-4.445,3.767,3.767,0,0,0-3.906-1.719A9.761,9.761,0,0,0,8.9,7.555s-4.375,3.664-6.391,5.578l1.656,2.109s1.4-.977,2.148-1.43a1.111,1.111,0,0,1,1.344.016,4.281,4.281,0,0,1,.961,1.1,14.88,14.88,0,0,1,1.148,2.609C10.8,21,11.758,24.469,12.719,27.953a14.9,14.9,0,0,0,2.188,4.969C16.414,35,18,35.477,20.445,34.6a15.761,15.761,0,0,0,5.156-3.43,52.473,52.473,0,0,0,6.68-7.906,36.757,36.757,0,0,0,4.016-6.8A12.048,12.048,0,0,0,37.258,8.906Z" transform="translate(-2.508 -4.999)"/>
</svg>
