<svg xmlns="http://www.w3.org/2000/svg" width="20" height="20" viewBox="0 0 20 20">
  <path id="phone_enabled_24dp_FILL1_wght100_GRAD0_opsz24" d="M6.981-5.584a1.376,1.376,0,0,1-.99-.39,1.294,1.294,0,0,1-.406-.974V-9.481a1.506,1.506,0,0,1,.341-.974,1.577,1.577,0,0,1,.893-.552l2.208-.455a2.238,2.238,0,0,1,.86.032,1.446,1.446,0,0,1,.7.455l2.695,2.76A26.785,26.785,0,0,0,16.3-10.13a22.314,22.314,0,0,0,2.532-2.175,28.214,28.214,0,0,0,2.094-2.419,22.046,22.046,0,0,0,1.834-2.808L20-20.032a1.363,1.363,0,0,1-.455-.682,2.073,2.073,0,0,1-.032-.974l.584-2.662a1.8,1.8,0,0,1,.568-.893,1.442,1.442,0,0,1,.958-.341h2.6a1.294,1.294,0,0,1,.974.406,1.376,1.376,0,0,1,.39.99,14.362,14.362,0,0,1-1.607,6.331,23.5,23.5,0,0,1-4.464,6.169,23.057,23.057,0,0,1-6.185,4.5A14.463,14.463,0,0,1,6.981-5.584Z" transform="translate(-5.584 25.584)" fill="#bbc1c9"/>
</svg>
