<svg xmlns="http://www.w3.org/2000/svg" xmlns:xlink="http://www.w3.org/1999/xlink" width="20" height="20" viewBox="0 0 20 20">
  <defs>
    <clipPath id="clip-path">
      <rect id="Rectangle_110" width="20" height="20" transform="translate(12.102 9.767)" fill="#fff" stroke="#707070" stroke-width="1"/>
    </clipPath>
  </defs>
  <g id="Mask_Group_12" transform="translate(-12.102 -9.767)" clip-path="url(#clip-path)">
    <path id="attach_money_24dp_FILL0_wght500_GRAD0_opsz24_2_" d="M13.242-3.2a1.12,1.12,0,0,1-.82-.329,1.1,1.1,0,0,1-.333-.817V-5.587a5.734,5.734,0,0,1-2.2-.986A5.038,5.038,0,0,1,8.358-8.521a1.022,1.022,0,0,1,0-.89,1.221,1.221,0,0,1,.709-.665,1.038,1.038,0,0,1,.86.017,1.5,1.5,0,0,1,.7.647,3.217,3.217,0,0,0,1.157,1.189,3.3,3.3,0,0,0,1.681.4A3.339,3.339,0,0,0,15.311-8.3a1.651,1.651,0,0,0,.741-1.493,1.908,1.908,0,0,0-.612-1.477,8.554,8.554,0,0,0-2.8-1.256,6.867,6.867,0,0,1-3.232-1.79,3.86,3.86,0,0,1-.893-2.572,3.555,3.555,0,0,1,1.139-2.784,4.545,4.545,0,0,1,2.435-1.2v-1.184a1.1,1.1,0,0,1,.333-.817,1.12,1.12,0,0,1,.82-.329,1.106,1.106,0,0,1,.82.329,1.115,1.115,0,0,1,.326.817v1.184a4.845,4.845,0,0,1,1.825.694A4.49,4.49,0,0,1,17.5-18.913a.911.911,0,0,1,.1.873,1.151,1.151,0,0,1-.685.7,1.113,1.113,0,0,1-.837.017,2.4,2.4,0,0,1-.862-.566,2.361,2.361,0,0,0-.812-.552,3,3,0,0,0-1.144-.193,2.665,2.665,0,0,0-1.754.5,1.551,1.551,0,0,0-.59,1.235,1.552,1.552,0,0,0,.776,1.364,11.713,11.713,0,0,0,2.837,1.094,5.757,5.757,0,0,1,2.924,1.776,4.311,4.311,0,0,1,1,2.827A3.821,3.821,0,0,1,17.288-6.83a5.488,5.488,0,0,1-2.9,1.3v1.184a1.109,1.109,0,0,1-.329.817,1.108,1.108,0,0,1-.817.329Z" transform="translate(8.747 32.968)" fill="#2563eb"/>
  </g>
</svg>
