<svg xmlns="http://www.w3.org/2000/svg" width="50" height="50" viewBox="0 0 50 50">
  <g id="erro_icon" transform="translate(-1404 -2095)">
    <g id="check_icon" transform="translate(-218 28)">
      <rect id="Rectangle_62"  width="50" height="50" rx="7" transform="translate(1622 2067)" fill="#fcd9df"/>
    </g>
    <path id="error_FILL1_wght300_GRAD0_opsz40" d="M112-842.023a.888.888,0,0,0,.654-.259.886.886,0,0,0,.259-.654.888.888,0,0,0-.259-.654.886.886,0,0,0-.654-.259.888.888,0,0,0-.654.259.886.886,0,0,0-.259.654.888.888,0,0,0,.259.654A.886.886,0,0,0,112-842.023Zm.051-4.508a.76.76,0,0,0,.564-.228.773.773,0,0,0,.225-.565v-6.193a.766.766,0,0,0-.229-.565.774.774,0,0,0-.568-.228.76.76,0,0,0-.564.228.773.773,0,0,0-.225.565v6.193a.766.766,0,0,0,.229.565A.774.774,0,0,0,112.052-846.532ZM112.009-836a11.632,11.632,0,0,1-4.674-.945,12.188,12.188,0,0,1-3.813-2.575,12.177,12.177,0,0,1-2.576-3.812,11.637,11.637,0,0,1-.945-4.676,11.657,11.657,0,0,1,.945-4.673,12.043,12.043,0,0,1,2.575-3.808,12.267,12.267,0,0,1,3.812-2.566,11.637,11.637,0,0,1,4.676-.945,11.657,11.657,0,0,1,4.673.945,12.132,12.132,0,0,1,3.808,2.565,12.116,12.116,0,0,1,2.566,3.809,11.665,11.665,0,0,1,.945,4.674,11.632,11.632,0,0,1-.945,4.674,12.232,12.232,0,0,1-2.565,3.809,12.113,12.113,0,0,1-3.809,2.576A11.624,11.624,0,0,1,112.009-836Z" transform="translate(1316.999 2967.999)" fill="#e50122"/>
  </g>
</svg>
