<svg xmlns="http://www.w3.org/2000/svg" width="20" height="15.402" viewBox="0 0 20 15.402">
  <path id="mail_24dp_FILL1_wght100_GRAD0_opsz24" d="M5.517-6.092A1.675,1.675,0,0,1,4.282-6.58a1.675,1.675,0,0,1-.489-1.236V-19.77a1.675,1.675,0,0,1,.489-1.236,1.675,1.675,0,0,1,1.236-.489H22.069a1.675,1.675,0,0,1,1.236.489,1.675,1.675,0,0,1,.489,1.236V-7.816A1.675,1.675,0,0,1,23.3-6.58a1.675,1.675,0,0,1-1.236.489Zm8.276-8.046a.732.732,0,0,0,.259-.043,2.393,2.393,0,0,0,.23-.1l8.362-5.546a.347.347,0,0,0,.172-.244.422.422,0,0,0-.057-.3.326.326,0,0,0-.23-.158.4.4,0,0,0-.316.043l-8.42,5.546-8.42-5.546a.488.488,0,0,0-.3-.072.305.305,0,0,0-.244.158.451.451,0,0,0-.057.316.355.355,0,0,0,.172.259L13.3-14.282a2.393,2.393,0,0,0,.23.1A.732.732,0,0,0,13.793-14.138Z" transform="translate(-3.793 21.494)" fill="#d1d7de"/>
</svg>
