<svg xmlns="http://www.w3.org/2000/svg" width="18" height="17.539" viewBox="0 0 18 17.539">
  <path id="person_24dp_FILL1_wght300_GRAD0_opsz24" d="M15-17.344a4.046,4.046,0,0,1-2.969-1.231A4.045,4.045,0,0,1,10.8-21.544a4.046,4.046,0,0,1,1.231-2.969A4.046,4.046,0,0,1,15-25.744a4.046,4.046,0,0,1,2.969,1.231A4.046,4.046,0,0,1,19.2-21.544a4.045,4.045,0,0,1-1.231,2.969A4.046,4.046,0,0,1,15-17.344ZM6-10.028v-.845a2.979,2.979,0,0,1,.479-1.633,3.2,3.2,0,0,1,1.28-1.155,17.411,17.411,0,0,1,3.589-1.308,15.505,15.505,0,0,1,7.3,0,17.411,17.411,0,0,1,3.59,1.308,3.2,3.2,0,0,1,1.28,1.155A2.979,2.979,0,0,1,24-10.873v.845a1.759,1.759,0,0,1-.532,1.291,1.758,1.758,0,0,1-1.291.532H7.823a1.758,1.758,0,0,1-1.291-.532A1.759,1.759,0,0,1,6-10.028Z" transform="translate(-6 25.744)" fill="#a0a0a0"/>
</svg>
