<svg xmlns="http://www.w3.org/2000/svg" width="16.168" height="20" viewBox="0 0 16.168 20">
  <path id="location_on_24dp_FILL1_wght200_GRAD0_opsz24" d="M13.671-3.924a1.707,1.707,0,0,1-.535-.088,1.413,1.413,0,0,1-.493-.285q-1.216-1.117-2.465-2.489A27.6,27.6,0,0,1,7.91-9.625a16.81,16.81,0,0,1-1.672-3,7.592,7.592,0,0,1-.652-2.987,8.069,8.069,0,0,1,2.354-5.964,7.808,7.808,0,0,1,5.73-2.349,7.808,7.808,0,0,1,5.73,2.349,8.069,8.069,0,0,1,2.354,5.964,7.515,7.515,0,0,1-.652,2.976,17.748,17.748,0,0,1-1.661,3A25.1,25.1,0,0,1,17.185-6.8Q15.936-5.436,14.72-4.318a1.458,1.458,0,0,1-.495.3,1.647,1.647,0,0,1-.555.1Zm0-10.054a1.763,1.763,0,0,0,1.3-.542,1.782,1.782,0,0,0,.538-1.3,1.763,1.763,0,0,0-.542-1.3,1.782,1.782,0,0,0-1.3-.538,1.763,1.763,0,0,0-1.3.542,1.782,1.782,0,0,0-.538,1.3,1.763,1.763,0,0,0,.542,1.3,1.782,1.782,0,0,0,1.3.538Z" transform="translate(-5.586 23.924)" fill="#bbc1c9"/>
</svg>
