<svg xmlns="http://www.w3.org/2000/svg" width="27.13" height="27.13" viewBox="0 0 27.13 27.13">
  <g id="Group_11"  transform="translate(-136.102 -126)">
    <circle id="Ellipse_3"  cx="13.565" cy="13.565" r="13.565" transform="translate(136.102 126)" fill="#0dbab5"/>
    <path id="Icon_material-autorenew"  d="M7,3.5V5.25L9.333,2.917,7,.583v1.75A4.658,4.658,0,0,0,3.057,9.485l.852-.852A3.424,3.424,0,0,1,3.5,7,3.5,3.5,0,0,1,7,3.5Zm3.943,1.015-.852.852A3.494,3.494,0,0,1,7,10.5V8.75L4.667,11.083,7,13.417v-1.75a4.658,4.658,0,0,0,3.943-7.152Z" transform="translate(142.667 132.565)" fill="#fff"/>
  </g>
</svg>
