<svg xmlns="http://www.w3.org/2000/svg" width="27.125" height="27.125" viewBox="0 0 27.125 27.125">
  <path id="Icon_awesome-user-circle"  d="M13.563.438A13.563,13.563,0,1,0,27.125,14,13.56,13.56,0,0,0,13.563.438Zm0,5.25A4.813,4.813,0,1,1,8.75,10.5,4.813,4.813,0,0,1,13.563,5.688Zm0,18.813a10.48,10.48,0,0,1-8.012-3.73c1.028-1.936,5.649-3.248,5.775-3.21a7.241,7.241,0,0,0,2.237.377A7.213,7.213,0,0,0,15.8,17.56c.126-.038,4.747,1.274,5.775,3.21A10.48,10.48,0,0,1,13.563,24.5Z" transform="translate(0 -0.438)" fill="#fb696b"/>
</svg>
