<svg xmlns="http://www.w3.org/2000/svg" width="27.13" height="27.13" viewBox="0 0 27.13 27.13">
  <g id="Group_51" transform="translate(-132.935 -126)">
    <path id="Path_24"  d="M13.565,0A13.565,13.565,0,1,1,0,13.565,13.565,13.565,0,0,1,13.565,0Z" transform="translate(132.935 126)" fill="#fcd34d"/>
    <path id="Icon_material-attach-money"  d="M6.883,6.358c-1.324-.344-1.75-.7-1.75-1.254,0-.636.589-1.079,1.575-1.079,1.038,0,1.423.5,1.458,1.225H9.456A2.325,2.325,0,0,0,7.583,3.027V1.75H5.833V3.01A2.276,2.276,0,0,0,3.792,5.116c0,1.347,1.114,2.018,2.742,2.409,1.458.35,1.75.863,1.75,1.406,0,.4-.286,1.044-1.575,1.044-1.2,0-1.674-.537-1.738-1.225H3.687a2.444,2.444,0,0,0,2.147,2.234V12.25h1.75V11c1.137-.216,2.042-.875,2.042-2.071,0-1.657-1.417-2.222-2.742-2.567Z" transform="translate(139.844 132.565)" fill="#fff"/>
  </g>
</svg>
