<svg xmlns="http://www.w3.org/2000/svg" width="14.635" height="14.94" viewBox="0 0 14.635 14.94">
  <path id="search_FILL0_wght200_GRAD0_opsz24" d="M165.479-795l-3.4-3.728a5.708,5.708,0,0,1-1.79,1.026,5.982,5.982,0,0,1-2.033.363,5.741,5.741,0,0,1-4.219-1.726,5.735,5.735,0,0,1-1.727-4.217,5.747,5.747,0,0,1,1.726-4.22,5.731,5.731,0,0,1,4.217-1.729,5.746,5.746,0,0,1,4.22,1.727,5.736,5.736,0,0,1,1.729,4.219,5.862,5.862,0,0,1-.383,2.093,5.687,5.687,0,0,1-1.006,1.73l3.406,3.816Zm-7.226-3.377a4.741,4.741,0,0,0,3.487-1.422,4.741,4.741,0,0,0,1.422-3.487,4.741,4.741,0,0,0-1.422-3.487,4.741,4.741,0,0,0-3.487-1.422,4.741,4.741,0,0,0-3.487,1.422,4.741,4.741,0,0,0-1.422,3.487,4.741,4.741,0,0,0,1.422,3.487A4.741,4.741,0,0,0,158.253-798.377Z" transform="translate(-109.746 816.821) rotate(-3)" fill="rgba(93,101,122,0.91)"/>
</svg>
