<svg xmlns="http://www.w3.org/2000/svg" height="24" viewBox="0 -960 960 960" width="24" fill="#536b7d"><path d="M43.957-230.956q-22.088 0-37.544-15.457-15.457-15.457-15.457-37.544V-303q0-47.522 46.826-76.783Q84.61-409.044 160-409.044q8.478 0 15.673.217 7.196.218 14.804 1.087-15.695 23.261-23.261 49.008-7.565 25.747-7.565 53.732v74.044H43.957Zm240 0q-22.087 0-37.544-15.457-15.457-15.457-15.457-37.544V-305q0-33.696 17.783-62.174 17.782-28.478 51.478-49.609 33.696-21.13 79.609-31.696 45.913-10.565 100.152-10.565 55.283 0 100.913 10.565 45.631 10.566 79.327 31.696 33.695 21.131 51.261 49.609 17.565 28.478 17.565 62.174v21.043q0 22.087-15.457 37.544-15.457 15.457-37.544 15.457H283.957Zm516.392 0V-305q0-29.035-7.348-54.72t-22.044-48.02q7.609-.869 14.652-1.087 7.042-.217 14.391-.217 76.07 0 122.557 28.971 46.487 28.971 46.487 77.073v19.043q0 22.087-15.457 37.544-15.457 15.457-37.544 15.457H800.349Zm-458.957-95.262h278.216q-16.218-16.043-55.783-27.086-39.565-11.044-83.542-11.044-43.978 0-83.826 11.044-39.847 11.043-55.065 27.086ZM160.05-446.783q-35.311 0-60.507-25.131-25.196-25.132-25.196-60.422 0-36.36 25.132-61.056 25.131-24.696 60.422-24.696 36.36 0 61.056 24.611 24.695 24.611 24.695 60.992 0 35.311-24.61 60.506-24.611 25.196-60.992 25.196Zm640 0q-35.311 0-60.507-25.131-25.195-25.132-25.195-60.422 0-36.36 25.131-61.056 25.131-24.696 60.422-24.696 36.36 0 61.056 24.611 24.695 24.611 24.695 60.992 0 35.311-24.61 60.506-24.611 25.196-60.992 25.196ZM480-488.479q-53.768 0-91.406-37.638-37.638-37.637-37.638-91.406 0-54.391 37.638-91.717 37.638-37.327 91.406-37.327 54.391 0 91.718 37.327 37.326 37.326 37.326 91.717 0 53.769-37.326 91.406-37.327 37.638-91.718 37.638Zm.283-94.696q14.456 0 24.26-10.087 9.805-10.087 9.805-24.543 0-14.457-9.875-24.261-9.875-9.804-24.473-9.804-14.174 0-24.261 9.875t-10.087 24.472q0 14.174 10.087 24.261t24.544 10.087ZM481-326.218Zm-1-291.305Z"/></svg>