<svg xmlns="http://www.w3.org/2000/svg" width="50" height="50" viewBox="0 0 50 50">
  <g id="check_icon" transform="translate(-1622 -2067)">
    <g id="Rectangle_62"  transform="translate(1622 2067)" fill="#fff" stroke="#c3c3c3" stroke-width="1">
      <rect width="50" height="50" rx="7" stroke="none"/>
      <rect x="0.5" y="0.5" width="49" height="49" rx="6.5" fill="none"/>
    </g>
    <path id="check_circle_FILL1_wght300_GRAD0_opsz40" d="M110.161-844.993l-3.114-3.122a.818.818,0,0,0-.574-.234.788.788,0,0,0-.591.247.786.786,0,0,0-.24.576.786.786,0,0,0,.24.576l3.586,3.6a.936.936,0,0,0,.692.3.936.936,0,0,0,.692-.3l7.228-7.22a.839.839,0,0,0,.247-.587.789.789,0,0,0-.247-.591.813.813,0,0,0-.6-.234.816.816,0,0,0-.582.247ZM112-836a11.629,11.629,0,0,1-4.663-.945,12.173,12.173,0,0,1-3.817-2.575,12.167,12.167,0,0,1-2.576-3.816A11.618,11.618,0,0,1,100-848a11.69,11.69,0,0,1,.945-4.68,12.032,12.032,0,0,1,2.575-3.811,12.257,12.257,0,0,1,3.816-2.566A11.619,11.619,0,0,1,112-860a11.69,11.69,0,0,1,4.68.945,12.122,12.122,0,0,1,3.811,2.565,12.116,12.116,0,0,1,2.566,3.809A11.679,11.679,0,0,1,124-848a11.629,11.629,0,0,1-.945,4.663,12.263,12.263,0,0,1-2.565,3.818,12.027,12.027,0,0,1-3.809,2.576A11.678,11.678,0,0,1,112-836Z" transform="translate(1534.999 2939.999)" fill="#2563eb"/>
  </g>
</svg>
