<svg xmlns="http://www.w3.org/2000/svg" width="13" height="13" viewBox="0 0 13 13">
  <defs>
    <clipPath id="clip-path">
      <rect id="Rectangle_70"  width="13" height="13" transform="translate(517 2572)" fill="#fff" stroke="#707070" stroke-width="1"/>
    </clipPath>
  </defs>
  <g id="Mask_Group_4" transform="translate(-517 -2572)" clip-path="url(#clip-path)">
    <path id="more_vert_FILL0_wght300_GRAD0_opsz24" d="M12.175-6.881a1.292,1.292,0,0,1-.947-.394,1.292,1.292,0,0,1-.394-.947,1.291,1.291,0,0,1,.394-.947,1.292,1.292,0,0,1,.947-.394,1.292,1.292,0,0,1,.947.394,1.291,1.291,0,0,1,.394.947,1.292,1.292,0,0,1-.394.947,1.292,1.292,0,0,1-.947.394Zm0-5.159a1.292,1.292,0,0,1-.947-.394,1.292,1.292,0,0,1-.394-.947,1.292,1.292,0,0,1,.394-.947,1.292,1.292,0,0,1,.947-.394,1.292,1.292,0,0,1,.947.394,1.292,1.292,0,0,1,.394.947,1.292,1.292,0,0,1-.394.947,1.292,1.292,0,0,1-.947.394Zm0-5.159a1.292,1.292,0,0,1-.947-.394,1.291,1.291,0,0,1-.394-.947,1.292,1.292,0,0,1,.394-.947,1.292,1.292,0,0,1,.947-.394,1.292,1.292,0,0,1,.947.394,1.292,1.292,0,0,1,.394.947,1.291,1.291,0,0,1-.394.947A1.292,1.292,0,0,1,12.175-17.2Z" transform="translate(511.325 2591.881)" fill="#6f7688"/>
  </g>
</svg>
