<svg xmlns="http://www.w3.org/2000/svg" width="20" height="20" viewBox="0 0 20 20">
  <path id="language_24dp_FILL1_wght200_GRAD0_opsz24" d="M13.333-3.333a9.688,9.688,0,0,1-3.889-.789A10.143,10.143,0,0,1,6.266-6.266,10.143,10.143,0,0,1,4.123-9.444a9.688,9.688,0,0,1-.789-3.889,9.682,9.682,0,0,1,.789-3.892A10.154,10.154,0,0,1,6.266-20.4a10.143,10.143,0,0,1,3.178-2.143,9.688,9.688,0,0,1,3.889-.789,9.682,9.682,0,0,1,3.892.789A10.154,10.154,0,0,1,20.4-20.4a10.154,10.154,0,0,1,2.143,3.175,9.682,9.682,0,0,1,.789,3.892,9.688,9.688,0,0,1-.789,3.889A10.143,10.143,0,0,1,20.4-6.266a10.154,10.154,0,0,1-3.175,2.143A9.682,9.682,0,0,1,13.333-3.333Zm0-1.1A16.514,16.514,0,0,0,14.947-6.9a13.011,13.011,0,0,0,1.032-2.711H10.688a15.225,15.225,0,0,0,1.053,2.8,12.619,12.619,0,0,0,1.592,2.382ZM11.919-4.6A10.387,10.387,0,0,1,10.5-6.869a13.041,13.041,0,0,1-.956-2.747H5.282a8.813,8.813,0,0,0,2.708,3.4A8.172,8.172,0,0,0,11.919-4.6Zm2.829,0a8.172,8.172,0,0,0,3.929-1.613,8.813,8.813,0,0,0,2.708-3.4H17.124a19.021,19.021,0,0,1-1.063,2.768A13.249,13.249,0,0,1,14.748-4.6ZM4.829-10.726H9.312a13.187,13.187,0,0,1-.178-1.332q-.052-.648-.052-1.274t.052-1.274a13.187,13.187,0,0,1,.178-1.332H4.829a8.245,8.245,0,0,0-.283,1.258,9.147,9.147,0,0,0-.1,1.349,9.147,9.147,0,0,0,.1,1.349,8.245,8.245,0,0,0,.283,1.257Zm5.594,0h5.821q.126-.684.178-1.311t.052-1.3q0-.669-.052-1.3t-.178-1.311H10.423q-.126.684-.178,1.311t-.053,1.3q0,.669.053,1.3t.178,1.311Zm6.932,0h4.483a8.245,8.245,0,0,0,.283-1.257,9.148,9.148,0,0,0,.1-1.349,9.147,9.147,0,0,0-.1-1.349,8.244,8.244,0,0,0-.283-1.258H17.355a13.187,13.187,0,0,1,.178,1.333q.052.648.052,1.274t-.052,1.274A13.187,13.187,0,0,1,17.355-10.726Zm-.231-6.325h4.261a8.779,8.779,0,0,0-2.676-3.4,8.654,8.654,0,0,0-3.961-1.635,13.053,13.053,0,0,1,1.4,2.341,15.337,15.337,0,0,1,.978,2.693Zm-6.436,0h5.291a15.4,15.4,0,0,0-1.086-2.829,12.34,12.34,0,0,0-1.56-2.351,12.34,12.34,0,0,0-1.56,2.351A15.4,15.4,0,0,0,10.688-17.051Zm-5.406,0H9.543a15.337,15.337,0,0,1,.977-2.693,13.053,13.053,0,0,1,1.4-2.341A8.537,8.537,0,0,0,7.948-20.44a8.948,8.948,0,0,0-2.666,3.389Z" transform="translate(-3.333 23.333)" fill="#bbc1c9"/>
</svg>
