<svg xmlns="http://www.w3.org/2000/svg" width="15" height="16" viewBox="0 0 15 16">
  <path id="date_range_FILL0_wght200_GRAD0_opsz24" d="M163.75-839.476a.716.716,0,0,1-.506-.2.629.629,0,0,1-.215-.473.629.629,0,0,1,.215-.473.716.716,0,0,1,.506-.2.716.716,0,0,1,.506.2.629.629,0,0,1,.215.473.629.629,0,0,1-.215.473A.716.716,0,0,1,163.75-839.476Zm3.75,0a.716.716,0,0,1-.506-.2.629.629,0,0,1-.215-.473.629.629,0,0,1,.215-.473.716.716,0,0,1,.506-.2.716.716,0,0,1,.506.2.629.629,0,0,1,.215.473.629.629,0,0,1-.215.473A.716.716,0,0,1,167.5-839.476Zm3.75,0a.716.716,0,0,1-.506-.2.629.629,0,0,1-.215-.473.629.629,0,0,1,.215-.473.716.716,0,0,1,.506-.2.716.716,0,0,1,.506.2.629.629,0,0,1,.215.473.629.629,0,0,1-.215.473A.716.716,0,0,1,171.25-839.476Zm-9.736,6.245a1.52,1.52,0,0,1-1.081-.406,1.329,1.329,0,0,1-.434-1.012v-11.207a1.329,1.329,0,0,1,.434-1.012,1.52,1.52,0,0,1,1.081-.406h1.659v-1.485a.444.444,0,0,1,.143-.338.508.508,0,0,1,.361-.134.508.508,0,0,1,.361.134.444.444,0,0,1,.143.338v1.485h6.707v-1.519a.411.411,0,0,1,.134-.313.47.47,0,0,1,.334-.126.47.47,0,0,1,.334.126.411.411,0,0,1,.134.313v1.519h1.659a1.52,1.52,0,0,1,1.081.406,1.329,1.329,0,0,1,.434,1.012v11.207a1.329,1.329,0,0,1-.434,1.012,1.52,1.52,0,0,1-1.081.406Zm0-.878h11.971a.569.569,0,0,0,.4-.169.5.5,0,0,0,.18-.371v-7.7H160.938v7.7a.5.5,0,0,0,.18.371A.569.569,0,0,0,161.514-834.109Zm-.577-9.114h13.125v-2.633a.5.5,0,0,0-.18-.371.569.569,0,0,0-.4-.169H161.514a.569.569,0,0,0-.4.169.5.5,0,0,0-.18.371Zm0,0v0Z" transform="translate(-160 849.231)" fill="#fff"/>
</svg>
